{
  "version": "0.6.2c",
  "modules": [
    {
      "plugin": "Core",
      "version": "0.6.2c",
      "model": "AudioInterface",
      "params": [],
      "data": {
        "audio": {
          "driver": 1,
          "deviceName": "default",
          "offset": 0,
          "maxChannels": 8,
          "sampleRate": 44100,
          "blockSize": 256
        }
      },
      "pos": [
        58,
        0
      ]
    },
    {
      "plugin": "Befaco",
      "version": "0.6.0",
      "model": "Mixer",
      "params": [
        {
          "paramId": 0,
          "value": 0.0
        },
        {
          "paramId": 1,
          "value": 1.0
        },
        {
          "paramId": 2,
          "value": 0.0
        },
        {
          "paramId": 3,
          "value": 0.0
        }
      ],
      "pos": [
        53,
        0
      ]
    },
    {
      "plugin": "Fundamental",
      "version": "0.6.2",
      "model": "Mutes",
      "params": [
        {
          "paramId": 0,
          "value": 0.0
        },
        {
          "paramId": 1,
          "value": 0.0
        },
        {
          "paramId": 2,
          "value": 0.0
        },
        {
          "paramId": 3,
          "value": 0.0
        },
        {
          "paramId": 4,
          "value": 0.0
        },
        {
          "paramId": 5,
          "value": 0.0
        },
        {
          "paramId": 6,
          "value": 0.0
        },
        {
          "paramId": 7,
          "value": 0.0
        },
        {
          "paramId": 8,
          "value": 0.0
        },
        {
          "paramId": 9,
          "value": 0.0
        }
      ],
      "data": {
        "states": [
          true,
          true,
          true,
          true,
          true,
          true,
          true,
          true,
          true,
          true
        ]
      },
      "pos": [
        45,
        0
      ]
    },
    {
      "plugin": "toot-toot-modules",
      "version": "0.6.0",
      "model": "NGHarmonizer",
      "params": [
        {
          "paramId": 0,
          "value": 8.0
        },
        {
          "paramId": 1,
          "value": 12.0
        },
        {
          "paramId": 2,
          "value": 4.0
        },
        {
          "paramId": 3,
          "value": 22.0
        }
      ],
      "pos": [
        29,
        1
      ]
    },
    {
      "plugin": "Fundamental",
      "version": "0.6.2",
      "model": "Scope",
      "params": [
        {
          "paramId": 0,
          "value": 0.0
        },
        {
          "paramId": 1,
          "value": 0.0
        },
        {
          "paramId": 2,
          "value": 0.0
        },
        {
          "paramId": 3,
          "value": 0.0
        },
        {
          "paramId": 4,
          "value": -14.0
        },
        {
          "paramId": 5,
          "value": 0.0
        },
        {
          "paramId": 6,
          "value": 0.0
        },
        {
          "paramId": 7,
          "value": 0.0
        }
      ],
      "data": {
        "lissajous": 0,
        "external": 0
      },
      "pos": [
        68,
        0
      ]
    },
    {
      "plugin": "Fundamental",
      "version": "0.6.2",
      "model": "VCO",
      "params": [
        {
          "paramId": 0,
          "value": 0.687313914
        },
        {
          "paramId": 1,
          "value": 0.183658123
        },
        {
          "paramId": 2,
          "value": -16.6859932
        },
        {
          "paramId": 3,
          "value": 0.410632133
        },
        {
          "paramId": 5,
          "value": 0.35170716
        },
        {
          "paramId": 4,
          "value": 0.769748032
        },
        {
          "paramId": 6,
          "value": 0.039629221
        }
      ],
      "pos": [
        29,
        0
      ]
    },
    {
      "plugin": "Fundamental",
      "version": "0.6.2",
      "model": "VCO",
      "params": [
        {
          "paramId": 0,
          "value": 1.0
        },
        {
          "paramId": 1,
          "value": 1.0
        },
        {
          "paramId": 2,
          "value": 4.69799662
        },
        {
          "paramId": 3,
          "value": 0.0
        },
        {
          "paramId": 5,
          "value": 0.5
        },
        {
          "paramId": 4,
          "value": 0.0
        },
        {
          "paramId": 6,
          "value": 0.0
        }
      ],
      "pos": [
        19,
        0
      ]
    },
    {
      "plugin": "Fundamental",
      "version": "0.6.2",
      "model": "VCO",
      "params": [
        {
          "paramId": 0,
          "value": 1.0
        },
        {
          "paramId": 1,
          "value": 1.0
        },
        {
          "paramId": 2,
          "value": -7.45199585
        },
        {
          "paramId": 3,
          "value": 0.0
        },
        {
          "paramId": 5,
          "value": 0.5
        },
        {
          "paramId": 4,
          "value": 0.0
        },
        {
          "paramId": 6,
          "value": 0.0
        }
      ],
      "pos": [
        9,
        0
      ]
    },
    {
      "plugin": "Fundamental",
      "version": "0.6.2",
      "model": "LFO",
      "params": [
        {
          "paramId": 0,
          "value": 1.0
        },
        {
          "paramId": 1,
          "value": 1.0
        },
        {
          "paramId": 2,
          "value": 2.89900231
        },
        {
          "paramId": 3,
          "value": 0.898000062
        },
        {
          "paramId": 5,
          "value": 0.5
        },
        {
          "paramId": 4,
          "value": 0.194999948
        },
        {
          "paramId": 6,
          "value": 0.0
        }
      ],
      "pos": [
        19,
        1
      ]
    },
    {
      "plugin": "Valley",
      "version": "0.6.16",
      "model": "Plateau",
      "params": [
        {
          "paramId": 0,
          "value": 1.0
        },
        {
          "paramId": 1,
          "value": 0.5
        },
        {
          "paramId": 2,
          "value": 0.0
        },
        {
          "paramId": 3,
          "value": 10.0
        },
        {
          "paramId": 4,
          "value": 10.0
        },
        {
          "paramId": 5,
          "value": 0.5
        },
        {
          "paramId": 6,
          "value": 10.0
        },
        {
          "paramId": 7,
          "value": 0.549950004
        },
        {
          "paramId": 9,
          "value": 10.0
        },
        {
          "paramId": 8,
          "value": 10.0
        },
        {
          "paramId": 10,
          "value": 0.0
        },
        {
          "paramId": 12,
          "value": 0.5
        },
        {
          "paramId": 11,
          "value": 0.5
        },
        {
          "paramId": 17,
          "value": 0.0
        },
        {
          "paramId": 18,
          "value": 0.0
        },
        {
          "paramId": 19,
          "value": 0.0
        },
        {
          "paramId": 20,
          "value": 0.0
        },
        {
          "paramId": 21,
          "value": 0.0
        },
        {
          "paramId": 22,
          "value": 0.0
        },
        {
          "paramId": 23,
          "value": 0.0
        },
        {
          "paramId": 25,
          "value": 0.0
        },
        {
          "paramId": 24,
          "value": 0.0
        },
        {
          "paramId": 26,
          "value": 0.0
        },
        {
          "paramId": 27,
          "value": 0.0
        },
        {
          "paramId": 28,
          "value": 0.0
        },
        {
          "paramId": 13,
          "value": 0.0
        },
        {
          "paramId": 15,
          "value": 0.0
        },
        {
          "paramId": 14,
          "value": 0.0
        },
        {
          "paramId": 29,
          "value": 0.0
        },
        {
          "paramId": 30,
          "value": 0.0
        }
      ],
      "data": {
        "frozen": false,
        "freezeToggle": false,
        "panelStyle": 0,
        "tuned": 0,
        "diffuseInput": 1,
        "preDelayCVSens": 0,
        "inputSensitivity": 0,
        "outputSaturation": 0
      },
      "pos": [
        44,
        1
      ]
    },
    {
      "plugin": "Fundamental",
      "version": "0.6.2",
      "model": "LFO",
      "params": [
        {
          "paramId": 0,
          "value": 1.0
        },
        {
          "paramId": 1,
          "value": 1.0
        },
        {
          "paramId": 2,
          "value": -1.079
        },
        {
          "paramId": 3,
          "value": 0.459000021
        },
        {
          "paramId": 5,
          "value": 0.5
        },
        {
          "paramId": 4,
          "value": 0.0
        },
        {
          "paramId": 6,
          "value": 0.0
        }
      ],
      "pos": [
        9,
        1
      ]
    },
    {
      "plugin": "Core",
      "version": "0.6.2c",
      "model": "MIDIToCVInterface",
      "params": [],
      "data": {
        "divisions": [
          24,
          6
        ],
        "midi": {
          "driver": -11,
          "deviceName": "QWERTY keyboard (US)",
          "channel": -1
        }
      },
      "pos": [
        66,
        1
      ]
    }
  ],
  "wires": [
    {
      "color": "#c91847",
      "outputModuleId": 1,
      "outputId": 1,
      "inputModuleId": 0,
      "inputId": 0
    },
    {
      "color": "#0c8e15",
      "outputModuleId": 1,
      "outputId": 1,
      "inputModuleId": 0,
      "inputId": 1
    },
    {
      "color": "#0986ad",
      "outputModuleId": 2,
      "outputId": 0,
      "inputModuleId": 1,
      "inputId": 0
    },
    {
      "color": "#0c8e15",
      "outputModuleId": 1,
      "outputId": 1,
      "inputModuleId": 4,
      "inputId": 0
    },
    {
      "color": "#c9b70e",
      "outputModuleId": 5,
      "outputId": 0,
      "inputModuleId": 3,
      "inputId": 0
    },
    {
      "color": "#c9b70e",
      "outputModuleId": 8,
      "outputId": 0,
      "inputModuleId": 3,
      "inputId": 1
    },
    {
      "color": "#0986ad",
      "outputModuleId": 9,
      "outputId": 0,
      "inputModuleId": 2,
      "inputId": 1
    },
    {
      "color": "#c9b70e",
      "outputModuleId": 3,
      "outputId": 1,
      "inputModuleId": 9,
      "inputId": 0
    },
    {
      "color": "#0986ad",
      "outputModuleId": 3,
      "outputId": 1,
      "inputModuleId": 2,
      "inputId": 0
    },
    {
      "color": "#c9b70e",
      "outputModuleId": 6,
      "outputId": 0,
      "inputModuleId": 8,
      "inputId": 0
    },
    {
      "color": "#c91847",
      "outputModuleId": 8,
      "outputId": 1,
      "inputModuleId": 7,
      "inputId": 0
    },
    {
      "color": "#0c8e15",
      "outputModuleId": 7,
      "outputId": 0,
      "inputModuleId": 8,
      "inputId": 1
    },
    {
      "color": "#0986ad",
      "outputModuleId": 7,
      "outputId": 1,
      "inputModuleId": 6,
      "inputId": 0
    },
    {
      "color": "#c91847",
      "outputModuleId": 3,
      "outputId": 2,
      "inputModuleId": 9,
      "inputId": 5
    },
    {
      "color": "#c91847",
      "outputModuleId": 10,
      "outputId": 0,
      "inputModuleId": 3,
      "inputId": 2
    },
    {
      "color": "#0c8e15",
      "outputModuleId": 8,
      "outputId": 2,
      "inputModuleId": 10,
      "inputId": 0
    },
    {
      "color": "#0986ad",
      "outputModuleId": 3,
      "outputId": 3,
      "inputModuleId": 9,
      "inputId": 12
    },
    {
      "color": "#c9b70e",
      "outputModuleId": 3,
      "outputId": 4,
      "inputModuleId": 9,
      "inputId": 10
    },
    {
      "color": "#c91847",
      "outputModuleId": 3,
      "outputId": 5,
      "inputModuleId": 9,
      "inputId": 3
    },
    {
      "color": "#0c8e15",
      "outputModuleId": 2,
      "outputId": 1,
      "inputModuleId": 1,
      "inputId": 1
    },
    {
      "color": "#0986ad",
      "outputModuleId": 3,
      "outputId": 0,
      "inputModuleId": 9,
      "inputId": 14
    },
    {
      "color": "#c9b70e",
      "outputModuleId": 11,
      "outputId": 0,
      "inputModuleId": 5,
      "inputId": 0
    },
    {
      "color": "#c91847",
      "outputModuleId": 11,
      "outputId": 1,
      "inputModuleId": 9,
      "inputId": 8
    }
  ]
}